<svg xmlns="http://www.w3.org/2000/svg" version="1.1" xmlns:xlink="http://www.w3.org/1999/xlink" xmlns:svgjs="http://svgjs.dev/svgjs" viewBox="0 0 800 800"><symbol id="SvgjsSymbol1003"><polygon points="0,12.5 25,0 50,12.5 25,25"></polygon></symbol><symbol id="SvgjsSymbol1004"><polygon points="0,12.5 25,25 25,50 0,37.5"></polygon></symbol><symbol id="SvgjsSymbol1005"><polygon points="25,25 50,12.5 50,37.5 25,50"></polygon></symbol><g shape-rendering="crispEdges"><g><use xlink:href="#SvgjsSymbol1003" x="75" y="75" fill="hsl(127, 89%, 38%)"></use><use xlink:href="#SvgjsSymbol1004" x="75" y="75" fill="#5eea55"></use><use xlink:href="#SvgjsSymbol1005" x="75" y="75" fill="#008600"></use></g><g><use xlink:href="#SvgjsSymbol1003" x="137.5" y="125" fill="hsl(127, 89%, 38%)"></use><use xlink:href="#SvgjsSymbol1004" x="137.5" y="125" fill="#5eea55"></use><use xlink:href="#SvgjsSymbol1005" x="137.5" y="125" fill="#008600"></use></g><g><use xlink:href="#SvgjsSymbol1003" x="225" y="187.5" fill="hsl(127, 89%, 38%)"></use><use xlink:href="#SvgjsSymbol1004" x="225" y="187.5" fill="#5eea55"></use><use xlink:href="#SvgjsSymbol1005" x="225" y="187.5" fill="#008600"></use></g><g><use xlink:href="#SvgjsSymbol1003" x="312.5" y="250" fill="hsl(127, 89%, 38%)"></use><use xlink:href="#SvgjsSymbol1004" x="312.5" y="250" fill="#5eea55"></use><use xlink:href="#SvgjsSymbol1005" x="312.5" y="250" fill="#008600"></use></g><g><use xlink:href="#SvgjsSymbol1003" x="437.5" y="312.5" fill="hsl(127, 89%, 38%)"></use><use xlink:href="#SvgjsSymbol1004" x="437.5" y="312.5" fill="#5eea55"></use><use xlink:href="#SvgjsSymbol1005" x="437.5" y="312.5" fill="#008600"></use></g><g><use xlink:href="#SvgjsSymbol1003" x="400" y="175" fill="hsl(127, 89%, 38%)"></use><use xlink:href="#SvgjsSymbol1004" x="400" y="175" fill="#5eea55"></use><use xlink:href="#SvgjsSymbol1005" x="400" y="175" fill="#008600"></use></g><g><use xlink:href="#SvgjsSymbol1003" x="525" y="112.5" fill="hsl(127, 89%, 38%)"></use><use xlink:href="#SvgjsSymbol1004" x="525" y="112.5" fill="#5eea55"></use><use xlink:href="#SvgjsSymbol1005" x="525" y="112.5" fill="#008600"></use></g><g><use xlink:href="#SvgjsSymbol1003" x="662.5" y="50" fill="hsl(127, 89%, 38%)"></use><use xlink:href="#SvgjsSymbol1004" x="662.5" y="50" fill="#5eea55"></use><use xlink:href="#SvgjsSymbol1005" x="662.5" y="50" fill="#008600"></use></g><g><use xlink:href="#SvgjsSymbol1003" x="312.5" y="112.5" fill="hsl(127, 89%, 38%)"></use><use xlink:href="#SvgjsSymbol1004" x="312.5" y="112.5" fill="#5eea55"></use><use xlink:href="#SvgjsSymbol1005" x="312.5" y="112.5" fill="#008600"></use></g><g><use xlink:href="#SvgjsSymbol1003" x="312.5" y="350" fill="hsl(127, 89%, 38%)"></use><use xlink:href="#SvgjsSymbol1004" x="312.5" y="350" fill="#5eea55"></use><use xlink:href="#SvgjsSymbol1005" x="312.5" y="350" fill="#008600"></use></g><g><use xlink:href="#SvgjsSymbol1003" x="312.5" y="462.5" fill="hsl(127, 89%, 38%)"></use><use xlink:href="#SvgjsSymbol1004" x="312.5" y="462.5" fill="#5eea55"></use><use xlink:href="#SvgjsSymbol1005" x="312.5" y="462.5" fill="#008600"></use></g><g><use xlink:href="#SvgjsSymbol1003" x="325" y="587.5" fill="hsl(127, 89%, 38%)"></use><use xlink:href="#SvgjsSymbol1004" x="325" y="587.5" fill="#5eea55"></use><use xlink:href="#SvgjsSymbol1005" x="325" y="587.5" fill="#008600"></use></g></g><g></g></svg>